<mxfile host="Electron" modified="2023-04-27T17:36:37.917Z" agent="Mozilla/5.0 (Macintosh; Intel Mac OS X 10_15_7) AppleWebKit/537.36 (KHTML, like Gecko) draw.io/21.2.1 Chrome/112.0.5615.87 Electron/24.1.2 Safari/537.36" etag="A_rp6m_lXgzVvmJOGyfs" version="21.2.1" type="device">
  <diagram name="Page-1" id="sTeGwQV9_m6BofXgbJ5z">
    <mxGraphModel dx="1154" dy="780" grid="1" gridSize="10" guides="1" tooltips="1" connect="1" arrows="1" fold="1" page="1" pageScale="1" pageWidth="1169" pageHeight="1654" math="0" shadow="0">
      <root>
        <mxCell id="0" />
        <mxCell id="1" parent="0" />
        <mxCell id="AoqqqO6MroJ7AJcKUCXX-31" value="Internet" style="ellipse;shape=cloud;whiteSpace=wrap;html=1;fillColor=#FAEBE9;strokeColor=#ae4132;fontSize=16;sketch=1;curveFitting=1;jiggle=2;fontFamily=Rock Salt;fontSource=https%3A%2F%2Ffonts.googleapis.com%2Fcss%3Ffamily%3DRock%2BSalt;" parent="1" vertex="1">
          <mxGeometry x="104.7565231598378" y="40" width="217.92808610409728" height="145.28483184625944" as="geometry" />
        </mxCell>
        <mxCell id="uvEzy6F4VexO6RhtwKEH-137" value="" style="group;" parent="1" vertex="1" connectable="0">
          <mxGeometry x="140" y="370" width="50" height="50" as="geometry" />
        </mxCell>
        <mxCell id="uvEzy6F4VexO6RhtwKEH-138" value="" style="rounded=1;whiteSpace=wrap;html=1;fillColor=none;arcSize=7;strokeColor=#005073;container=0;" parent="uvEzy6F4VexO6RhtwKEH-137" vertex="1">
          <mxGeometry width="50" height="50" as="geometry" />
        </mxCell>
        <mxCell id="uvEzy6F4VexO6RhtwKEH-139" value="" style="group" parent="uvEzy6F4VexO6RhtwKEH-137" vertex="1" connectable="0">
          <mxGeometry x="5.5" y="5.2150000000001455" width="39" height="39.569999999999936" as="geometry" />
        </mxCell>
        <mxCell id="uvEzy6F4VexO6RhtwKEH-140" value="" style="shape=singleArrow;whiteSpace=wrap;html=1;fillColor=#005073;arrowWidth=0.28266202079286507;arrowSize=0.38084889353643797;strokeColor=#005073;container=0;rotation=-45;" parent="uvEzy6F4VexO6RhtwKEH-139" vertex="1">
          <mxGeometry x="23.09999999999991" y="7.2199999999998" width="12" height="6" as="geometry" />
        </mxCell>
        <mxCell id="uvEzy6F4VexO6RhtwKEH-141" value="" style="ellipse;whiteSpace=wrap;html=1;aspect=fixed;fillColor=#005073;strokeColor=#005073;" parent="uvEzy6F4VexO6RhtwKEH-139" vertex="1">
          <mxGeometry x="12" y="12.36999999999989" width="15" height="15" as="geometry" />
        </mxCell>
        <mxCell id="uvEzy6F4VexO6RhtwKEH-142" value="" style="shape=singleArrow;whiteSpace=wrap;html=1;fillColor=#005073;arrowWidth=0.28266202079286507;arrowSize=0.38084889353643797;strokeColor=#005073;container=0;rotation=0;" parent="uvEzy6F4VexO6RhtwKEH-139" vertex="1">
          <mxGeometry x="27" y="16.86999999999989" width="12" height="6" as="geometry" />
        </mxCell>
        <mxCell id="uvEzy6F4VexO6RhtwKEH-143" value="" style="shape=singleArrow;whiteSpace=wrap;html=1;fillColor=#005073;arrowWidth=0.28266202079286507;arrowSize=0.38084889353643797;strokeColor=#005073;container=0;rotation=45;" parent="uvEzy6F4VexO6RhtwKEH-139" vertex="1">
          <mxGeometry x="23.09999999999991" y="26.36999999999989" width="12" height="6" as="geometry" />
        </mxCell>
        <mxCell id="uvEzy6F4VexO6RhtwKEH-144" value="" style="shape=singleArrow;whiteSpace=wrap;html=1;fillColor=#005073;arrowWidth=0.28266202079286507;arrowSize=0.38084889353643797;strokeColor=#005073;container=0;rotation=-135;" parent="uvEzy6F4VexO6RhtwKEH-139" vertex="1">
          <mxGeometry x="3.4999999999998863" y="7.2199999999998" width="12" height="6" as="geometry" />
        </mxCell>
        <mxCell id="uvEzy6F4VexO6RhtwKEH-145" value="" style="shape=singleArrow;whiteSpace=wrap;html=1;fillColor=#005073;arrowWidth=0.28266202079286507;arrowSize=0.38084889353643797;strokeColor=#005073;container=0;rotation=-180;" parent="uvEzy6F4VexO6RhtwKEH-139" vertex="1">
          <mxGeometry y="16.86999999999989" width="12" height="6" as="geometry" />
        </mxCell>
        <mxCell id="uvEzy6F4VexO6RhtwKEH-146" value="" style="shape=singleArrow;whiteSpace=wrap;html=1;fillColor=#005073;arrowWidth=0.28266202079286507;arrowSize=0.38084889353643797;strokeColor=#005073;container=0;rotation=-225;flipH=0;flipV=0;" parent="uvEzy6F4VexO6RhtwKEH-139" vertex="1">
          <mxGeometry x="3.4999999999998863" y="26.36999999999989" width="12" height="6" as="geometry" />
        </mxCell>
        <mxCell id="uvEzy6F4VexO6RhtwKEH-147" value="" style="shape=singleArrow;whiteSpace=wrap;html=1;fillColor=#005073;arrowWidth=0.28266202079286507;arrowSize=0.38084889353643797;strokeColor=#005073;container=0;rotation=-90;" parent="uvEzy6F4VexO6RhtwKEH-139" vertex="1">
          <mxGeometry x="13.5" y="3" width="12" height="6" as="geometry" />
        </mxCell>
        <mxCell id="uvEzy6F4VexO6RhtwKEH-148" value="" style="shape=singleArrow;whiteSpace=wrap;html=1;fillColor=#005073;arrowWidth=0.28266202079286507;arrowSize=0.38084889353643797;strokeColor=#005073;container=0;rotation=90;" parent="uvEzy6F4VexO6RhtwKEH-139" vertex="1">
          <mxGeometry x="13.5" y="30.569999999999936" width="12" height="6" as="geometry" />
        </mxCell>
        <mxCell id="uvEzy6F4VexO6RhtwKEH-205" value="" style="group" parent="1" vertex="1" connectable="0">
          <mxGeometry x="210" y="370" width="50" height="50" as="geometry" />
        </mxCell>
        <mxCell id="uvEzy6F4VexO6RhtwKEH-206" value="" style="rounded=1;whiteSpace=wrap;html=1;fillColor=none;arcSize=7;strokeColor=#005073;" parent="uvEzy6F4VexO6RhtwKEH-205" vertex="1">
          <mxGeometry width="50" height="50" as="geometry" />
        </mxCell>
        <mxCell id="uvEzy6F4VexO6RhtwKEH-207" value="" style="shape=singleArrow;whiteSpace=wrap;html=1;fillColor=#005073;arrowWidth=0.2754142409314888;arrowSize=0.4515736179529186;strokeColor=#005073;" parent="uvEzy6F4VexO6RhtwKEH-205" vertex="1">
          <mxGeometry x="27.5" y="4.7999999999999545" width="18" height="11" as="geometry" />
        </mxCell>
        <mxCell id="uvEzy6F4VexO6RhtwKEH-208" value="" style="shape=singleArrow;whiteSpace=wrap;html=1;fillColor=#005073;arrowWidth=0.2754142409314888;arrowSize=0.4515736179529186;strokeColor=#005073;" parent="uvEzy6F4VexO6RhtwKEH-205" vertex="1">
          <mxGeometry x="22.90000000000009" y="23.799999999999955" width="18" height="11" as="geometry" />
        </mxCell>
        <mxCell id="uvEzy6F4VexO6RhtwKEH-209" value="" style="shape=singleArrow;whiteSpace=wrap;html=1;fillColor=#005073;arrowWidth=0.2754142409314888;arrowSize=0.4515736179529186;strokeColor=#005073;flipH=1;" parent="uvEzy6F4VexO6RhtwKEH-205" vertex="1">
          <mxGeometry x="4.7000000000000455" y="33.200000000000045" width="18" height="11" as="geometry" />
        </mxCell>
        <mxCell id="uvEzy6F4VexO6RhtwKEH-210" value="" style="shape=singleArrow;whiteSpace=wrap;html=1;fillColor=#005073;arrowWidth=0.2754142409314888;arrowSize=0.4515736179529186;strokeColor=#005073;flipH=1;" parent="uvEzy6F4VexO6RhtwKEH-205" vertex="1">
          <mxGeometry x="9.799999999999955" y="14.129999999999995" width="18" height="11" as="geometry" />
        </mxCell>
        <mxCell id="uvEzy6F4VexO6RhtwKEH-226" value="" style="group" parent="1" vertex="1" connectable="0">
          <mxGeometry x="144.99" y="300" width="172.5" height="26" as="geometry" />
        </mxCell>
        <mxCell id="uvEzy6F4VexO6RhtwKEH-224" value="" style="group" parent="uvEzy6F4VexO6RhtwKEH-226" vertex="1" connectable="0">
          <mxGeometry width="172.5" height="26" as="geometry" />
        </mxCell>
        <mxCell id="uvEzy6F4VexO6RhtwKEH-57" value="" style="rounded=1;whiteSpace=wrap;html=1;sketch=1;curveFitting=1;jiggle=2;strokeColor=#005073;" parent="uvEzy6F4VexO6RhtwKEH-224" vertex="1">
          <mxGeometry width="172.5" height="25.133333333333336" as="geometry" />
        </mxCell>
        <mxCell id="uvEzy6F4VexO6RhtwKEH-58" value="" style="rounded=1;whiteSpace=wrap;html=1;" parent="uvEzy6F4VexO6RhtwKEH-224" vertex="1">
          <mxGeometry x="31.5" y="7.15" width="15" height="11.700000000000001" as="geometry" />
        </mxCell>
        <mxCell id="uvEzy6F4VexO6RhtwKEH-59" value="" style="rounded=1;whiteSpace=wrap;html=1;" parent="uvEzy6F4VexO6RhtwKEH-224" vertex="1">
          <mxGeometry x="48.75" y="7.15" width="15" height="11.700000000000001" as="geometry" />
        </mxCell>
        <mxCell id="uvEzy6F4VexO6RhtwKEH-60" value="" style="rounded=1;whiteSpace=wrap;html=1;" parent="uvEzy6F4VexO6RhtwKEH-224" vertex="1">
          <mxGeometry x="83.43" y="7.15" width="15" height="11.700000000000001" as="geometry" />
        </mxCell>
        <mxCell id="uvEzy6F4VexO6RhtwKEH-61" value="" style="rounded=1;whiteSpace=wrap;html=1;" parent="uvEzy6F4VexO6RhtwKEH-224" vertex="1">
          <mxGeometry x="66.18" y="7.15" width="15" height="11.700000000000001" as="geometry" />
        </mxCell>
        <mxCell id="uvEzy6F4VexO6RhtwKEH-62" value="" style="rounded=1;whiteSpace=wrap;html=1;" parent="uvEzy6F4VexO6RhtwKEH-224" vertex="1">
          <mxGeometry x="101.09999999999997" y="7.15" width="15" height="11.700000000000001" as="geometry" />
        </mxCell>
        <mxCell id="uvEzy6F4VexO6RhtwKEH-63" value="" style="rounded=1;whiteSpace=wrap;html=1;" parent="uvEzy6F4VexO6RhtwKEH-224" vertex="1">
          <mxGeometry x="118.34999999999997" y="7.15" width="15" height="11.700000000000001" as="geometry" />
        </mxCell>
        <mxCell id="uvEzy6F4VexO6RhtwKEH-64" value="" style="rounded=1;whiteSpace=wrap;html=1;" parent="uvEzy6F4VexO6RhtwKEH-224" vertex="1">
          <mxGeometry x="153.02999999999997" y="7.15" width="15" height="11.700000000000001" as="geometry" />
        </mxCell>
        <mxCell id="uvEzy6F4VexO6RhtwKEH-65" value="" style="rounded=1;whiteSpace=wrap;html=1;" parent="uvEzy6F4VexO6RhtwKEH-224" vertex="1">
          <mxGeometry x="135.77999999999997" y="7.15" width="15" height="11.700000000000001" as="geometry" />
        </mxCell>
        <mxCell id="uvEzy6F4VexO6RhtwKEH-211" value="" style="group" parent="uvEzy6F4VexO6RhtwKEH-224" vertex="1" connectable="0">
          <mxGeometry x="4.5" y="3.25" width="22.5" height="19.5" as="geometry" />
        </mxCell>
        <mxCell id="uvEzy6F4VexO6RhtwKEH-212" value="" style="rounded=1;whiteSpace=wrap;html=1;fillColor=none;arcSize=7;strokeColor=#005073;" parent="uvEzy6F4VexO6RhtwKEH-211" vertex="1">
          <mxGeometry width="22.5" height="19.5" as="geometry" />
        </mxCell>
        <mxCell id="uvEzy6F4VexO6RhtwKEH-213" value="" style="shape=singleArrow;whiteSpace=wrap;html=1;fillColor=#005073;arrowWidth=0.2754142409314888;arrowSize=0.4515736179529186;strokeColor=#005073;" parent="uvEzy6F4VexO6RhtwKEH-211" vertex="1">
          <mxGeometry x="12.375" y="1.8719999999999826" width="8.1" height="4.289999999999999" as="geometry" />
        </mxCell>
        <mxCell id="uvEzy6F4VexO6RhtwKEH-214" value="" style="shape=singleArrow;whiteSpace=wrap;html=1;fillColor=#005073;arrowWidth=0.2754142409314888;arrowSize=0.4515736179529186;strokeColor=#005073;" parent="uvEzy6F4VexO6RhtwKEH-211" vertex="1">
          <mxGeometry x="10.30500000000004" y="9.281999999999982" width="8.1" height="4.289999999999999" as="geometry" />
        </mxCell>
        <mxCell id="uvEzy6F4VexO6RhtwKEH-215" value="" style="shape=singleArrow;whiteSpace=wrap;html=1;fillColor=#005073;arrowWidth=0.2754142409314888;arrowSize=0.4515736179529186;strokeColor=#005073;flipH=1;" parent="uvEzy6F4VexO6RhtwKEH-211" vertex="1">
          <mxGeometry x="2.1150000000000206" y="12.948000000000016" width="8.1" height="4.289999999999999" as="geometry" />
        </mxCell>
        <mxCell id="uvEzy6F4VexO6RhtwKEH-216" value="" style="shape=singleArrow;whiteSpace=wrap;html=1;fillColor=#005073;arrowWidth=0.2754142409314888;arrowSize=0.4515736179529186;strokeColor=#005073;flipH=1;" parent="uvEzy6F4VexO6RhtwKEH-211" vertex="1">
          <mxGeometry x="4.409999999999979" y="5.510699999999998" width="8.1" height="4.289999999999999" as="geometry" />
        </mxCell>
        <mxCell id="O6jRKuedm6S2xsAvogRB-7" value="" style="group" vertex="1" connectable="0" parent="1">
          <mxGeometry x="139.9992297015647" y="210.00145639136147" width="76.15366862276727" height="20.838673940407148" as="geometry" />
        </mxCell>
        <mxCell id="O6jRKuedm6S2xsAvogRB-2" value="" style="whiteSpace=wrap;html=1;rounded=1;sketch=1;curveFitting=1;jiggle=2;strokeWidth=0.6;container=0;" vertex="1" parent="O6jRKuedm6S2xsAvogRB-7">
          <mxGeometry y="6.314749678911255" width="76.15366862276728" height="14.52392426149588" as="geometry" />
        </mxCell>
        <mxCell id="O6jRKuedm6S2xsAvogRB-3" value="" style="shape=trapezoid;perimeter=trapezoidPerimeter;whiteSpace=wrap;html=1;fixedSize=1;size=10;rounded=1;shadow=0;sketch=1;curveFitting=1;jiggle=2;strokeWidth=0.5;container=0;" vertex="1" parent="O6jRKuedm6S2xsAvogRB-7">
          <mxGeometry width="76.15366862276728" height="6.314749678911252" as="geometry" />
        </mxCell>
        <mxCell id="O6jRKuedm6S2xsAvogRB-4" value="" style="rounded=0;whiteSpace=wrap;html=1;strokeWidth=0.5;sketch=1;curveFitting=1;jiggle=2;container=0;" vertex="1" parent="O6jRKuedm6S2xsAvogRB-7">
          <mxGeometry x="4.988065294791255" y="13.260974325713619" width="9.51920857784591" height="3.157374839455626" as="geometry" />
        </mxCell>
        <mxCell id="O6jRKuedm6S2xsAvogRB-5" value="" style="rounded=0;whiteSpace=wrap;html=1;strokeWidth=0.5;sketch=1;curveFitting=1;jiggle=2;container=0;" vertex="1" parent="O6jRKuedm6S2xsAvogRB-7">
          <mxGeometry x="18.314957303775543" y="13.260974325713619" width="9.51920857784591" height="3.157374839455626" as="geometry" />
        </mxCell>
        <mxCell id="O6jRKuedm6S2xsAvogRB-6" value="" style="ellipse;whiteSpace=wrap;html=1;aspect=fixed;strokeWidth=0.2;fillColor=#000000;container=0;" vertex="1" parent="O6jRKuedm6S2xsAvogRB-7">
          <mxGeometry x="65.9110001930051" y="12.945236841768065" width="1.6579322190172503" height="1.6579322190172503" as="geometry" />
        </mxCell>
        <mxCell id="uvEzy6F4VexO6RhtwKEH-236" value="" style="whiteSpace=wrap;html=1;rounded=1;strokeWidth=0.8;sketch=1;curveFitting=1;jiggle=1;container=0;" parent="1" vertex="1">
          <mxGeometry x="267.92709846153844" y="200.00082763826853" width="25.537209230769225" height="29.912030182175336" as="geometry" />
        </mxCell>
        <mxCell id="uvEzy6F4VexO6RhtwKEH-237" value="" style="shape=image;verticalLabelPosition=bottom;labelBackgroundColor=default;verticalAlign=top;aspect=fixed;imageAspect=0;image=data:image/svg+xml,PHN2ZyB4bWxucz0iaHR0cDovL3d3dy53My5vcmcvMjAwMC9zdmciIHZpZXdCb3g9IjAgMCAxNTAgMTUwIiB2ZXJzaW9uPSIxLjEiIHdpZHRoPSIxMDAlIiBzdHlsZT0iZmlsbC1ydWxlOmV2ZW5vZGQ7Y2xpcC1ydWxlOmV2ZW5vZGQ7c3Ryb2tlLWxpbmVjYXA6cm91bmQ7c3Ryb2tlLWxpbmVqb2luOnJvdW5kOyIgaGVpZ2h0PSIxMDAlIj4mI3hhOyAgPGRlZnM+JiN4YTsgICAgJiN4YTsgIDwvZGVmcz4mI3hhOyAgPHJlY3QgeT0iMTUiIHg9IjE1IiBzdHlsZT0iZmlsbDogbm9uZTsgc3Ryb2tlLXdpZHRoOiAwLjJweDsgc3Ryb2tlOiByZ2IoODQsIDg0LCA4NCk7IHBvaW50ZXItZXZlbnRzOiBub25lOyB2aXNpYmlsaXR5OiBoaWRkZW47IiBoZWlnaHQ9IjEyMCIgd2lkdGg9IjEyMCIvPiYjeGE7ICA8Zz4mI3hhOyAgICA8dGl0bGU+UmFzcGJlcnJ5PC90aXRsZT4mI3hhOyAgICA8cGF0aCBzdHlsZT0iZmlsbDogbm9uZTsgc3Ryb2tlOiByZ2IoMCwgMCwgMCk7IiBkPSJNIDUzLjQ2NiAxNS4wMzcgQyA1Mi44NTkgMTUuMDU2IDUyLjIwNiAxNS4yOCA1MS40NjYgMTUuODY1IEMgNDkuNjUxIDE1LjE2NSA0Ny44OTIgMTQuOTIyIDQ2LjMxOCAxNi4zNDYgQyA0My44OSAxNi4wMzEgNDMuMDk5IDE2LjY4MiA0Mi41MDEgMTcuNDQxIEMgNDEuOTY4IDE3LjQzIDM4LjUxIDE2Ljg5MyAzNi45MjQgMTkuMjU4IEMgMzIuOTQgMTguNzg2IDMxLjY4IDIxLjYwMiAzMy4xMDcgMjQuMjI3IEMgMzIuMjkzIDI1LjQ4NyAzMS40NSAyNi43MzIgMzMuMzUzIDI5LjEzMyBDIDMyLjY4IDMwLjQ3MSAzMy4wOTcgMzEuOTIyIDM0LjY4MyAzMy42NzkgQyAzNC4yNjUgMzUuNTU5IDM1LjA4NyAzNi44ODYgMzYuNTYzIDM3LjkyIEMgMzYuMjg3IDQwLjQ5MyAzOC45MjMgNDEuOTkgMzkuNzEgNDIuNTIzIEMgNDAuMDEyIDQ0LjAyMiA0MC42NDIgNDUuNDM3IDQzLjY1MyA0Ni4yMiBDIDQ0LjE1IDQ4LjQ1NCA0NS45NTkgNDguODQgNDcuNzExIDQ5LjMwOSBDIDQxLjkyIDUyLjY3NSAzNi45NTQgNTcuMTA0IDM2Ljk4NyA2Ny45NzEgTCAzNi4xMzkgNjkuNDg0IEMgMjkuNDk4IDczLjUyMyAyMy41MjQgODYuNTAzIDMyLjg2NiA5Ny4wNTQgQyAzMy40NzcgMTAwLjM1NiAzNC41IDEwMi43MjggMzUuNDExIDEwNS4zNTMgQyAzNi43NzQgMTE1LjkzMSA0NS42NjkgMTIwLjg4NSA0OC4wMTUgMTIxLjQ3IEMgNTEuNDUzIDEyNC4wODkgNTUuMTE0IDEyNi41NzQgNjAuMDY5IDEyOC4zMTQgQyA2NC43NCAxMzMuMTMyIDY5LjggMTM0Ljk2OCA3NC44ODggMTM0Ljk2NCBDIDc0Ljk2MiAxMzQuOTY0IDc1LjAzOCAxMzQuOTY1IDc1LjExMyAxMzQuOTY0IEMgODAuMjAxIDEzNC45NjggODUuMjYxIDEzMy4xMzIgODkuOTMxIDEyOC4zMTQgQyA5NC44ODYgMTI2LjU3NCA5OC41NDggMTI0LjA4OSAxMDEuOTg1IDEyMS40NyBDIDEwNC4zMzEgMTIwLjg4NSAxMTMuMjI2IDExNS45MzEgMTE0LjU4OSAxMDUuMzUzIEMgMTE1LjUgMTAyLjcyOCAxMTYuNTI0IDEwMC4zNTYgMTE3LjEzNCA5Ny4wNTQgQyAxMjYuNDc2IDg2LjUwMyAxMjAuNTAyIDczLjUyMyAxMTMuODYxIDY5LjQ4NCBMIDExMy4wMTMgNjcuOTcxIEMgMTEzLjA0NyA1Ny4xMDQgMTA4LjA4IDUyLjY3NSAxMDIuMjg5IDQ5LjMwOSBDIDEwNC4wNDEgNDguODQgMTA1Ljg1MSA0OC40NTQgMTA2LjM0NyA0Ni4yMiBDIDEwOS4zNTggNDUuNDM3IDEwOS45ODggNDQuMDIyIDExMC4yOSA0Mi41MjMgQyAxMTEuMDc3IDQxLjk5IDExMy43MTMgNDAuNDkzIDExMy40MzcgMzcuOTIgQyAxMTQuOTEzIDM2Ljg4NiAxMTUuNzM2IDM1LjU1OSAxMTUuMzE3IDMzLjY3OSBDIDExNi45MDMgMzEuOTIyIDExNy4zMiAzMC40NzEgMTE2LjY0NyAyOS4xMzMgQyAxMTguNTUgMjYuNzMyIDExNy43MDcgMjUuNDg3IDExNi44OTMgMjQuMjI3IEMgMTE4LjMyIDIxLjYwMiAxMTcuMDYxIDE4Ljc4NiAxMTMuMDc2IDE5LjI1OCBDIDExMS40OSAxNi44OTMgMTA4LjAzMyAxNy40MyAxMDcuNDk5IDE3LjQ0MSBDIDEwNi45MDEgMTYuNjgyIDEwNi4xMTEgMTYuMDMxIDEwMy42ODIgMTYuMzQ2IEMgMTAyLjEwOCAxNC45MjIgMTAwLjM0OSAxNS4xNjUgOTguNTM1IDE1Ljg2NSBDIDk2LjM4IDE0LjE2NCA5NC45NTQgMTUuNTI3IDkzLjMyNSAxNi4wNDMgQyA5MC43MTUgMTUuMTkgOTAuMTE5IDE2LjM1OCA4OC44MzcgMTYuODMzIEMgODUuOTkzIDE2LjIzMiA4NS4xMjggMTcuNTQxIDgzLjc2MyAxOC45MjMgTCA4Mi4xNzcgMTguODkxIEMgNzcuODg1IDIxLjQyIDc1Ljc1MyAyNi41NyA3NC45OTggMjkuMjE3IEMgNzQuMjQyIDI2LjU2OSA3Mi4xMTQgMjEuNDIgNjcuODI0IDE4Ljg5MSBMIDY2LjIzNyAxOC45MjMgQyA2NC44NzIgMTcuNTQxIDY0LjAwOCAxNi4yMzIgNjEuMTYzIDE2LjgzMyBDIDU5Ljg4MiAxNi4zNTggNTkuMjg1IDE1LjE5IDU2LjY3NiAxNi4wNDMgQyA1NS42MDcgMTUuNzA0IDU0LjYyNCAxNS4wMDEgNTMuNDY2IDE1LjAzNyBaIi8+JiN4YTsgICAgPHBhdGggc3R5bGU9ImZpbGw6IG5vbmU7IHN0cm9rZTogcmdiKDAsIDAsIDApOyIgZD0iTSA0NC45MjMgMjYuMTYzIEMgNTYuMzA4IDMyLjAzMyA2Mi45MjcgMzYuNzgyIDY2LjU1MyA0MC44MjYgQyA2NC42OTYgNDguMjY4IDU1LjAwOSA0OC42MDggNTEuNDY3IDQ4LjM5OSBDIDUyLjE5MiA0OC4wNjIgNTIuNzk3IDQ3LjY1NyA1My4wMTIgNDcuMDM2IEMgNTIuMTIzIDQ2LjQwNCA0OC45NzEgNDYuOTY5IDQ2Ljc3MSA0NS43MzMgQyA0Ny42MTYgNDUuNTU4IDQ4LjAxMiA0NS4zODggNDguNDA3IDQ0Ljc2NCBDIDQ2LjMyOCA0NC4xMDEgNDQuMDg5IDQzLjUzIDQyLjc3MiA0Mi40MzEgQyA0My40ODMgNDIuNDQgNDQuMTQ2IDQyLjU5IDQ1LjA3NSA0MS45NDcgQyA0My4yMTMgNDAuOTQzIDQxLjIyNiA0MC4xNDggMzkuNjgyIDM4LjYxNCBDIDQwLjY0NSAzOC41OTEgNDEuNjgzIDM4LjYwNSA0MS45ODUgMzguMjUxIEMgNDAuMjggMzcuMTk1IDM4Ljg0MyAzNi4wMjEgMzcuNjUyIDM0LjczNyBDIDM5IDM0Ljg5OSAzOS41NjkgMzQuNzU5IDM5Ljg5NCAzNC41MjUgQyAzOC42MDYgMzMuMjA1IDM2Ljk3NiAzMi4wOTEgMzYuMTk4IDMwLjQ2NSBDIDM3LjE5OSAzMC44MSAzOC4xMTQgMzAuOTQyIDM4Ljc3MyAzMC40MzUgQyAzOC4zMzYgMjkuNDQ3IDM2LjQ2IDI4Ljg2NSAzNS4zOCAyNi41NTcgQyAzNi40MzMgMjYuNjU5IDM3LjU1IDI2Ljc4NyAzNy43NzQgMjYuNTU3IEMgMzcuMjg0IDI0LjU2NSAzNi40NDUgMjMuNDQ2IDM1LjYyMyAyMi4yODYgQyAzNy44NzYgMjIuMjUyIDQxLjI5MSAyMi4yOTQgNDEuMTM2IDIyLjEwNCBMIDM5Ljc0MyAyMC42OCBDIDQxLjk0NCAyMC4wODcgNDQuMTk3IDIwLjc3NSA0NS44MzIgMjEuMjg2IEMgNDYuNTY2IDIwLjcwNyA0NS44MTkgMTkuOTc0IDQ0LjkyMyAxOS4yMjYgQyA0Ni43OTQgMTkuNDc2IDQ4LjQ4NCAxOS45MDYgNTAuMDEyIDIwLjQ5OCBDIDUwLjgyOSAxOS43NjEgNDkuNDgyIDE5LjAyNCA0OC44MzEgMTguMjg3IEMgNTEuNzIxIDE4LjgzNSA1Mi45NDYgMTkuNjA2IDU0LjE2MyAyMC4zNzcgQyA1NS4wNDYgMTkuNTMxIDU0LjIxMyAxOC44MTIgNTMuNjE3IDE4LjA3NSBDIDU1Ljc5NyAxOC44ODIgNTYuOTE5IDE5LjkyNCA1OC4xMDEgMjAuOTUzIEMgNTguNTAyIDIwLjQxMiA1OS4xMTkgMjAuMDE2IDU4LjM3NCAxOC43MTEgQyA1OS45MjEgMTkuNjAzIDYxLjA4NiAyMC42NTQgNjEuOTQ4IDIxLjgzMSBDIDYyLjkwNiAyMS4yMjIgNjIuNTE5IDIwLjM4OCA2Mi41MjQgMTkuNjIgQyA2NC4xMzIgMjAuOTI4IDY1LjE1MyAyMi4zMiA2Ni40MDIgMjMuNjc5IEMgNjYuNjUzIDIzLjQ5NiA2Ni44NzQgMjIuODc1IDY3LjA2OCAyMS44OTIgQyA3MC45MDUgMjUuNjE0IDc2LjMyNSAzNC45ODggNjguNDYyIDM4LjcwNSBDIDYxLjc3MyAzMy4xODQgNTMuNzgxIDI5LjE3MyA0NC45MjMgMjYuMTYzIFoiLz4mI3hhOyAgICA8cGF0aCBzdHlsZT0iZmlsbDogbm9uZTsgc3Ryb2tlOiByZ2IoMCwgMCwgMCk7IiBkPSJNIDEwNS4zMzUgMjYuMTYzIEMgOTMuOTQ5IDMyLjAzMyA4Ny4zMzEgMzYuNzgyIDgzLjcwNSA0MC44MjYgQyA4NS41NjEgNDguMjY4IDk1LjI0OSA0OC42MDggOTguNzkxIDQ4LjM5OSBDIDk4LjA2NiA0OC4wNjIgOTcuNDYxIDQ3LjY1NyA5Ny4yNDYgNDcuMDM2IEMgOTguMTM1IDQ2LjQwNCAxMDEuMjg2IDQ2Ljk2OSAxMDMuNDg3IDQ1LjczMyBDIDEwMi42NDEgNDUuNTU4IDEwMi4yNDYgNDUuMzg4IDEwMS44NTEgNDQuNzY0IEMgMTAzLjkyOSA0NC4xMDEgMTA2LjE2OSA0My41MyAxMDcuNDg1IDQyLjQzMSBDIDEwNi43NzUgNDIuNDQgMTA2LjExMSA0Mi41OSAxMDUuMTgzIDQxLjk0NyBDIDEwNy4wNDUgNDAuOTQzIDEwOS4wMzIgNDAuMTQ4IDExMC41NzUgMzguNjE0IEMgMTA5LjYxMyAzOC41OTEgMTA4LjU3NSAzOC42MDUgMTA4LjI3MyAzOC4yNTEgQyAxMDkuOTc3IDM3LjE5NSAxMTEuNDE1IDM2LjAyMSAxMTIuNjA1IDM0LjczNyBDIDExMS4yNTggMzQuODk5IDExMC42ODkgMzQuNzU5IDExMC4zNjMgMzQuNTI1IEMgMTExLjY1MiAzMy4yMDUgMTEzLjI4MiAzMi4wOTEgMTE0LjA1OSAzMC40NjUgQyAxMTMuMDU5IDMwLjgxIDExMi4xNDQgMzAuOTQyIDExMS40ODQgMzAuNDM1IEMgMTExLjkyMiAyOS40NDcgMTEzLjc5OCAyOC44NjUgMTE0Ljg3NyAyNi41NTcgQyAxMTMuODI0IDI2LjY1OSAxMTIuNzA3IDI2Ljc4NyAxMTIuNDg0IDI2LjU1NyBDIDExMi45NzQgMjQuNTY1IDExMy44MTIgMjMuNDQ2IDExNC42MzUgMjIuMjg2IEMgMTEyLjM4MSAyMi4yNTIgMTA4Ljk2NyAyMi4yOTQgMTA5LjEyMSAyMi4xMDQgTCAxMTAuNTE1IDIwLjY4IEMgMTA4LjMxNCAyMC4wODcgMTA2LjA2MSAyMC43NzUgMTA0LjQyNiAyMS4yODYgQyAxMDMuNjkyIDIwLjcwNyAxMDQuNDM5IDE5Ljk3NCAxMDUuMzM1IDE5LjIyNiBDIDEwMy40NjQgMTkuNDc2IDEwMS43NzMgMTkuOTA2IDEwMC4yNDUgMjAuNDk4IEMgOTkuNDI5IDE5Ljc2MSAxMDAuNzc1IDE5LjAyNCAxMDEuNDI3IDE4LjI4NyBDIDk4LjUzNiAxOC44MzUgOTcuMzEyIDE5LjYwNiA5Ni4wOTUgMjAuMzc3IEMgOTUuMjEyIDE5LjUzMSA5Ni4wNDQgMTguODEyIDk2LjY0IDE4LjA3NSBDIDk0LjQ2MSAxOC44ODIgOTMuMzM4IDE5LjkyNCA5Mi4xNTcgMjAuOTUzIEMgOTEuNzU2IDIwLjQxMiA5MS4xMzkgMjAuMDE2IDkxLjg4NCAxOC43MTEgQyA5MC4zMzcgMTkuNjAzIDg5LjE3MSAyMC42NTQgODguMzA5IDIxLjgzMSBDIDg3LjM1MiAyMS4yMjIgODcuNzM5IDIwLjM4OCA4Ny43MzQgMTkuNjIgQyA4Ni4xMjYgMjAuOTI4IDg1LjEwNSAyMi4zMiA4My44NTYgMjMuNjc5IEMgODMuNjA0IDIzLjQ5NiA4My4zODQgMjIuODc1IDgzLjE5IDIxLjg5MiBDIDc5LjM1MyAyNS42MTQgNzMuOTMyIDM0Ljk4OCA4MS43OTYgMzguNzA1IEMgODguNDg1IDMzLjE4NCA5Ni40NzcgMjkuMTczIDEwNS4zMzUgMjYuMTYzIFoiLz4mI3hhOyAgICA8cGF0aCBzdHlsZT0iZmlsbDogbm9uZTsgc3Ryb2tlOiByZ2IoMCwgMCwgMCk7IiBkPSJNIDg4LjkxNyAxMDEuOTUyIEMgODguOTE3IDExMS42MzMgNzcuNTUyIDExNy42ODQgNjguNDYgMTEyLjg0MyBDIDY0LjI0MSAxMTAuNTk3IDYxLjY0MSAxMDYuNDQ1IDYxLjY0MSAxMDEuOTUyIEMgNjEuNjQxIDkyLjI3MiA3My4wMDYgODYuMjIxIDgyLjA5OCA5MS4wNjEgQyA4Ni4zMTggOTMuMzA4IDg4LjkxNyA5Ny40NTkgODguOTE3IDEwMS45NTIgWiIvPiYjeGE7ICAgIDxwYXRoIHRyYW5zZm9ybT0ibWF0cml4KDAuNTUxMzE4LCAtMC44MzQyOTUsIDAuODM0Mjk1LCAwLjU1MTMxOCwgLTM4LjQ2NTE3MywgODQuNjA5NjQ0KSIgc3R5bGU9ImZpbGw6IG5vbmU7IHN0cm9rZTogcmdiKDAsIDAsIDApOyIgZD0iTSA3My44NjIgNzguMDY3IEMgNzMuODk5IDg3LjQ4MyA2MS44OTYgOTMuMzY4IDUyLjI1NiA4OC42NiBDIDQ3Ljc4MiA4Ni40NzUgNDUuMDE2IDgyLjQzNyA0NC45OTkgNzguMDY3IEMgNDQuOTYxIDY4LjY1MSA1Ni45NjUgNjIuNzY1IDY2LjYwNCA2Ny40NzMgQyA3MS4wNzggNjkuNjU5IDczLjg0NSA3My42OTcgNzMuODYyIDc4LjA2NyBaIi8+JiN4YTsgICAgPHBhdGggdHJhbnNmb3JtPSJtYXRyaXgoLTAuNTUxMzE4LCAtMC44MzQyOTUsIDAuODM0Mjk1LCAtMC41NTEzMTgsIDc1Ljk3MTYyOSwgMTk1LjY1MjM1NSkiIHN0eWxlPSJmaWxsOiBub25lOyBzdHJva2U6IHJnYigwLCAwLCAwKTsiIGQ9Ik0gMTA1LjAyOCA3Ny4zOTcgQyAxMDUuMDY2IDY3Ljk4MSA5My4wNjIgNjIuMDk2IDgzLjQyMyA2Ni44MDQgQyA3OC45NDkgNjguOTg5IDc2LjE4MiA3My4wMjcgNzYuMTY1IDc3LjM5NyBDIDc2LjEyOCA4Ni44MTQgODguMTMxIDkyLjY5OSA5Ny43NzEgODcuOTkxIEMgMTAyLjI0NSA4NS44MDYgMTA1LjAxMSA4MS43NjggMTA1LjAyOCA3Ny4zOTcgWiIvPiYjeGE7ICAgIDxwYXRoIHN0eWxlPSJmaWxsOiBub25lOyBzdHJva2U6IHJnYigwLCAwLCAwKTsiIGQ9Ik0gMzkuMTQ1IDcyLjA4MSBDIDQ1LjI0NyA3MC40NDYgNDEuMjA1IDk3LjMyMSAzNi4yNDEgOTUuMTE2IEMgMzAuNzgxIDkwLjcyNCAyOS4wMjIgNzcuODYyIDM5LjE0NSA3Mi4wODEgWiIvPiYjeGE7ICAgIDxwYXRoIHN0eWxlPSJmaWxsOiBub25lOyBzdHJva2U6IHJnYigwLCAwLCAwKTsiIGQ9Ik0gMTA5LjY1IDcxLjc0NSBDIDEwMy41NDggNzAuMTExIDEwNy41OSA5Ni45ODYgMTEyLjU1NCA5NC43ODEgQyAxMTguMDE1IDkwLjM4OSAxMTkuNzczIDc3LjUyNiAxMDkuNjUgNzEuNzQ1IFoiLz4mI3hhOyAgICA8cGF0aCBzdHlsZT0iZmlsbDogbm9uZTsgc3Ryb2tlOiByZ2IoMCwgMCwgMCk7IiBkPSJNIDg4LjkyMSA1MS43MzMgQyA5OS40NSA0OS45NTUgMTA4LjIxIDU2LjIxIDEwNy44NTggNjcuNjI3IEMgMTA3LjUxMSA3Mi4wMDQgODUuMDQzIDUyLjM4NCA4OC45MjEgNTEuNzMzIFoiLz4mI3hhOyAgICA8cGF0aCBzdHlsZT0iZmlsbDogbm9uZTsgc3Ryb2tlOiByZ2IoMCwgMCwgMCk7IiBkPSJNIDU5LjgzMSA1MS4zOTggQyA0OS4zMDIgNDkuNjIgNDAuNTQyIDU1Ljg3NSA0MC44OTQgNjcuMjkyIEMgNDEuMjQxIDcxLjY2OSA2My43MDkgNTIuMDQ5IDU5LjgzMSA1MS4zOTggWiIvPiYjeGE7ICAgIDxwYXRoIHN0eWxlPSJmaWxsOiBub25lOyBzdHJva2U6IHJnYigwLCAwLCAwKTsiIGQ9Ik0gNzQuOTU1IDQ4LjczNCBDIDY4LjY3MSA0OC41NyA2Mi42NCA1My4zOTggNjIuNjI1IDU2LjE5OCBDIDYyLjYwOCA1OS42IDY3LjU5NCA2My4wODMgNzQuOTk4IDYzLjE3MiBDIDgyLjU1OCA2My4yMjYgODcuMzgzIDYwLjM4MyA4Ny40MDcgNTYuODcyIEMgODcuNDM1IDUyLjg5NSA4MC41MzEgNDguNjcyIDc0Ljk1NSA0OC43MzQgWiIvPiYjeGE7ICAgIDxwYXRoIHN0eWxlPSJmaWxsOiBub25lOyBzdHJva2U6IHJnYigwLCAwLCAwKTsiIGQ9Ik0gNzUuMzM4IDExOC41IEMgODAuODE3IDExOC4yNjEgODguMTY5IDEyMC4yNjUgODguMTgzIDEyMi45MjMgQyA4OC4yNzQgMTI1LjUwNCA4MS41MTYgMTMxLjMzNiA3NC45NzUgMTMxLjIyNCBDIDY4LjIwMSAxMzEuNTE2IDYxLjU1OCAxMjUuNjc1IDYxLjY0NSAxMjMuNjUgQyA2MS41NDQgMTIwLjY4MiA2OS44OTQgMTE4LjM2NCA3NS4zMzggMTE4LjUgWiIvPiYjeGE7ICAgIDxwYXRoIHN0eWxlPSJmaWxsOiBub25lOyBzdHJva2U6IHJnYigwLCAwLCAwKTsiIGQ9Ik0gNTUuMTAyIDEwMi43NDcgQyA1OS4wMDMgMTA3LjQ0NiA2MC43ODEgMTE1LjcwMyA1Ny41MjUgMTE4LjEzNiBDIDU0LjQ0NiAxMTkuOTk0IDQ2Ljk2NyAxMTkuMjI5IDQxLjY1MSAxMTEuNTkzIEMgMzguMDY2IDEwNS4xODUgMzguNTI4IDk4LjY2NCA0MS4wNDUgOTYuNzQ5IEMgNDQuODEgOTQuNDU2IDUwLjYyNSA5Ny41NTMgNTUuMTAyIDEwMi43NDcgWiIvPiYjeGE7ICAgIDxwYXRoIHN0eWxlPSJmaWxsOiBub25lOyBzdHJva2U6IHJnYigwLCAwLCAwKTsiIGQ9Ik0gOTQuNzk0IDEwMS4yNTcgQyA5MC41NzQgMTA2LjIgODguMjI0IDExNS4yMTcgOTEuMzAzIDExOC4xMjEgQyA5NC4yNDYgMTIwLjM3NyAxMDIuMTQ5IDEyMC4wNjIgMTA3Ljk4NiAxMTEuOTYyIEMgMTEyLjIyNSAxMDYuNTIyIDExMC44MDQgOTcuNDM3IDEwOC4zODMgOTUuMDI2IEMgMTA0Ljc4NyA5Mi4yNDQgOTkuNjI0IDk1LjgwNCA5NC43OTQgMTAxLjI1NyBaIi8+JiN4YTsgIDwvZz4mI3hhOzwvc3ZnPg==;container=0;" parent="1" vertex="1">
          <mxGeometry x="267.92709846153844" y="204.22752755531505" width="21.781949267843324" height="21.781949267843324" as="geometry" />
        </mxCell>
      </root>
    </mxGraphModel>
  </diagram>
</mxfile>
